<svg width="48" height="48" viewBox="0 0 48 48" fill="none" xmlns="http://www.w3.org/2000/svg">
<circle cx="24" cy="24" r="24" fill="#E1E1E1"/>
<mask id="mask0_21745_1205" style="mask-type:alpha" maskUnits="userSpaceOnUse" x="0" y="0" width="48" height="48">
<circle cx="24" cy="24" r="24" fill="#C4C4C4"/>
</mask>
<g mask="url(#mask0_21745_1205)">
<path d="M31.865 64.6006L25.9255 65.0885L24.1229 60.5806L22.7586 65.0885L15.3145 64.7L15.3145 33.4102L31.865 33.4102L31.865 64.6006Z" fill="#AEC9F2"/>
<path d="M36.7523 32.6375C36.7464 32.6434 36.7406 32.6492 36.7377 32.6521C34.8737 34.6037 32.5715 36.1346 29.9889 37.0812C29.9392 37.0987 29.8925 37.1163 29.8428 37.1338C28.2914 37.686 26.6437 38.0307 24.9317 38.133C24.5782 38.1534 24.2217 38.168 23.8624 38.168C23.4884 38.168 23.1115 38.1563 22.7405 38.133C21.2826 38.0453 19.8774 37.7765 18.5335 37.3558C15.9158 36.5349 13.561 35.1267 11.6182 33.289C11.3786 33.0611 11.1419 32.8245 10.9141 32.5849C11.1449 32.3424 11.3932 32.1146 11.6532 31.9159C11.998 31.6442 12.3632 31.4163 12.74 31.241L18.2472 28.6905L18.5656 28.5444L19.7167 28.0098L22.3782 27.6008L23.728 26.1517L23.728 26.0874L23.8069 26.1195L23.8828 26.0874L23.8828 26.1517L25.2326 27.6037L27.9146 28.0185L29.3637 28.6905L29.8107 28.895L29.9597 28.9651L34.8737 31.241C35.5515 31.5565 36.1855 32.0415 36.7377 32.6288C36.7435 32.6288 36.7493 32.6317 36.7523 32.6375Z" fill="#AEC9F2"/>
<path d="M26.9047 21.2305L20.746 21.2305L19.6738 28.3123L27.9418 28.175L26.9047 21.2305Z" fill="#F2AA6F"/>
<path d="M29.6783 15.8163C29.4008 13.669 30.3941 9.61096 27.8874 8.61764C25.8277 7.7996 24.2968 7.81713 23.8118 7.84635C23.3239 7.81421 21.793 7.7996 19.7333 8.61764C17.2267 9.61096 18.2229 13.669 17.9424 15.8163C17.6649 17.9637 19.4879 22.942 20.5923 24.6716C21.9946 26.8715 25.6407 27.0059 27.2125 24.768C28.3987 23.0881 29.9588 17.9637 29.6783 15.8163Z" fill="#F2BE94"/>
<path d="M20.0023 17.6945C20.0023 18.7345 19.3362 19.5818 18.5123 19.5818C17.6884 19.5818 17.1772 18.7258 17.0223 17.6945C16.8441 16.5083 17.1216 15.8101 17.9455 15.8101C18.7694 15.8071 20.0023 16.6515 20.0023 17.6945Z" fill="#F2BE94"/>
<path d="M27.6094 17.694C27.6094 18.7341 28.2784 19.5813 29.0994 19.5813C29.9232 19.5813 30.4345 18.7253 30.5894 17.694C30.7705 16.5078 30.49 15.8096 29.6661 15.8096C28.8452 15.8067 27.6094 16.651 27.6094 17.694Z" fill="#F2BE94"/>
<path d="M17.7921 14.9275C17.7921 14.9275 18.3588 18.1062 18.4845 18.1003C18.6101 18.0916 18.8351 18.1003 18.8351 18.1003L19.3522 12.8036C19.3522 12.8036 27.6085 12.0732 27.6085 9.05522C27.6085 6.70337 20.4507 7.20296 18.3296 9.32401C17.1289 10.5277 17.7921 14.9275 17.7921 14.9275Z" fill="#424242"/>
<path d="M30.0084 14.9276C30.0084 14.9276 29.6052 17.9864 29.4796 17.9777C29.3539 17.9689 29.129 17.9777 29.129 17.9777L28.3022 12.1258C28.3022 12.1258 24.2441 10.7614 24.2441 9.12538C24.2441 7.18547 27.3497 7.20008 29.4708 9.32404C30.6716 10.5277 30.0084 14.9276 30.0084 14.9276Z" fill="#424242"/>
<path d="M14.8279 61.9641C13.5775 61.1081 12.4206 59.3697 11.0708 58.3647C5.02319 53.8509 3.58286 51.7854 3.04237 50.8563C2.32659 49.6351 10.916 32.5791 10.916 32.5791L11.5382 31.913C11.883 31.6413 12.368 31.4105 12.7448 31.2352L14.752 30.3062L11.363 45.0395L10.6443 48.1656L11.2811 48.7996L17.133 54.6251C13.3408 57.3188 14.8279 61.9641 14.8279 61.9641Z" fill="#DFE6F2"/>
<path d="M18.5687 28.542L18.5336 37.3534L18.3963 81.0481C13.7335 81.2789 10.625 78.7956 10.625 78.7956L11.0603 58.9028L11.2823 48.8L11.3642 45.04L11.6212 33.2866L11.5365 31.9164C11.8813 31.6447 12.3662 31.4139 12.7431 31.2386L14.7502 30.3095L18.2502 28.6851L18.5687 28.542Z" fill="#DFE6F2"/>
<path d="M37.7484 78.7961C37.7484 78.7961 34.6428 81.2794 29.98 81.0486L29.8427 37.1348L29.8105 28.8931L29.9595 28.9632L34.8736 31.2391C35.5514 31.5546 36.1854 32.0396 36.7375 32.6268L36.7375 32.6589L37.7484 78.7961Z" fill="#DFE6F2"/>
<path d="M16.4863 36.9384C16.4863 36.9384 17.059 29.8098 17.5118 29.0151C17.8069 28.498 19.0631 28.311 19.0631 28.311" stroke="#424242" stroke-width="0.77908" stroke-miterlimit="10"/>
<path d="M30.6407 32.5976C30.6407 32.5976 30.521 29.8104 30.0681 29.0128C29.776 28.4957 28.5781 28.1772 28.5781 28.1772" stroke="#424242" stroke-width="0.77908" stroke-miterlimit="10"/>
<path d="M30.4648 44.3597C29.2611 43.9566 28.3437 42.8814 28.2064 41.5375L27.6659 36.2524C27.479 34.4206 28.8112 32.7846 30.643 32.5976C32.4748 32.4106 34.1109 33.7428 34.2979 35.5746L34.8384 40.8597C34.9727 42.1803 34.3183 43.4015 33.2549 44.0471" stroke="#424242" stroke-width="0.77908" stroke-miterlimit="10"/>
<path d="M40.9207 72.0037C40.9207 72.0037 40.6344 72.179 40.1611 72.3835C39.2203 72.7925 37.5375 73.3272 35.9073 72.8568C35.5509 72.7516 35.1974 72.6026 34.8556 72.3923C32.156 70.7387 36.737 32.6563 36.737 32.6563C36.737 32.6563 39.5563 50.5186 39.9478 56.9256C40.3364 63.3355 40.9207 72.0037 40.9207 72.0037Z" fill="#DFE6F2"/>
<path d="M12.193 61.9652L8.54102 42.6333L21.2001 42.6333L23.0991 61.9652L12.193 61.9652Z" fill="#3B5998"/>
<path d="M8.87985 47.0698C8.87985 47.0698 11.5151 50.1228 16.7242 52.536C16.7242 52.536 14.4775 55.367 16.2684 60.6434C16.2684 60.6434 8.52634 59.3871 7.28468 52.2965C6.47833 47.6775 8.87985 47.0698 8.87985 47.0698Z" fill="#DFE6F2"/>
<path d="M31.0848 44.2953C31.0848 44.605 30.8335 44.8563 30.5238 44.8563C30.2141 44.8563 29.9629 44.605 29.9629 44.2953C29.9629 43.9856 30.2141 43.7344 30.5238 43.7344C30.8364 43.7373 31.0848 43.9856 31.0848 44.2953Z" fill="#424242"/>
<path d="M34.0047 43.9301C34.0047 44.2398 33.7534 44.491 33.4437 44.491C33.1341 44.491 32.8828 44.2398 32.8828 43.9301C32.8828 43.6204 33.1341 43.3691 33.4437 43.3691C33.7534 43.3691 34.0047 43.6204 34.0047 43.9301Z" fill="#424242"/>
<path d="M18.25 28.9332L19.9825 26.5083L23.8097 28.1473L22.5768 31.2733L18.25 28.9332Z" fill="#EDF0F2"/>
<path d="M29.3654 28.9332L27.6329 26.5083L23.8086 28.1473L25.0386 31.2733L29.3654 28.9332Z" fill="#EDF0F2"/>
<path d="M18.0207 37.9694C18.0207 38.8195 17.3342 39.5061 16.484 39.5061C15.6338 39.5061 14.9473 38.8166 14.9473 37.9694C14.9473 37.1192 15.6338 36.4326 16.484 36.4326C17.3342 36.4326 18.0207 37.1192 18.0207 37.9694Z" fill="#424242"/>
<path d="M16.4844 38.6802C16.8684 38.6802 17.1797 38.3689 17.1797 37.9849C17.1797 37.6009 16.8684 37.2896 16.4844 37.2896C16.1004 37.2896 15.7891 37.6009 15.7891 37.9849C15.7891 38.3689 16.1004 38.6802 16.4844 38.6802Z" fill="#707070"/>
<path d="M34.5837 73.0372L34.5837 44.856L33.7773 73.0372C33.7803 73.0372 33.9205 73.4755 34.5837 73.0372Z" fill="#AEC9F2"/>
</g>
</svg>
