<svg width="64" height="64" viewBox="0 0 64 64" fill="none" xmlns="http://www.w3.org/2000/svg">
<g clip-path="url(#clip0_20602_15100)">
<circle cx="32" cy="32" r="30.5" stroke="#DDE0E4" stroke-width="3"/>
<path d="M58.0207 13.37C52.5256 5.70843 43.7305 0.573897 33.7144 0.0451412C32.769 -0.00477 32 0.767512 32 1.71429C32 2.66106 32.7687 3.42321 33.7138 3.47912C42.5171 3.99994 50.248 8.50662 55.1272 15.2198C55.6663 15.9616 56.6761 16.2115 57.4705 15.7536C58.3183 15.2649 58.591 14.1651 58.0207 13.37Z" fill="#1E427B"/>
<path d="M20.6772 36H19.4057V27.5713L16.8559 28.5078V27.3594L20.479 25.999H20.6772V36ZM26.8299 32.2334C26.8299 31.5088 26.9711 30.8571 27.2537 30.2783C27.5408 29.6995 27.9373 29.2529 28.4431 28.9385C28.9536 28.624 29.5346 28.4668 30.1863 28.4668C31.1935 28.4668 32.0069 28.8154 32.6267 29.5127C33.2511 30.21 33.5633 31.1374 33.5633 32.2949V32.3838C33.5633 33.1038 33.4243 33.751 33.1463 34.3252C32.8728 34.8949 32.4786 35.3392 31.9636 35.6582C31.4532 35.9772 30.8653 36.1367 30.2 36.1367C29.1974 36.1367 28.3839 35.7881 27.7595 35.0908C27.1398 34.3936 26.8299 33.4707 26.8299 32.3223V32.2334ZM28.1013 32.3838C28.1013 33.2041 28.2905 33.8626 28.6687 34.3594C29.0515 34.8561 29.562 35.1045 30.2 35.1045C30.8426 35.1045 31.353 34.8538 31.7312 34.3525C32.1095 33.8467 32.2986 33.1403 32.2986 32.2334C32.2986 31.4222 32.1049 30.766 31.7176 30.2646C31.3347 29.7588 30.8243 29.5059 30.1863 29.5059C29.562 29.5059 29.0584 29.7542 28.6756 30.251C28.2927 30.7477 28.1013 31.4587 28.1013 32.3838ZM35.3613 36V29.5811H34.1923V28.6035H35.3613V27.8447C35.3613 27.0518 35.5732 26.4388 35.997 26.0059C36.4208 25.5729 37.0201 25.3564 37.7949 25.3564C38.0865 25.3564 38.3759 25.3952 38.663 25.4727L38.5947 26.498C38.3805 26.457 38.1526 26.4365 37.9111 26.4365C37.5009 26.4365 37.1842 26.5573 36.9609 26.7988C36.7376 27.0358 36.6259 27.3776 36.6259 27.8242V28.6035H38.205V29.5811H36.6259V36H35.3613Z" fill="#1E427B"/>
<path d="M42.7102 31.0098L43.2161 26.0469H48.3157V27.2158H44.2893L43.9885 29.9297C44.4762 29.6426 45.0299 29.499 45.6497 29.499C46.5566 29.499 47.2766 29.7998 47.8098 30.4014C48.343 30.9984 48.6096 31.8073 48.6096 32.8281C48.6096 33.8535 48.3316 34.6624 47.7756 35.2549C47.2242 35.8428 46.4517 36.1367 45.4583 36.1367C44.5787 36.1367 43.8609 35.8929 43.3049 35.4053C42.7489 34.9176 42.4322 34.2432 42.3547 33.3818H43.551C43.6285 33.9515 43.8313 34.3822 44.1594 34.6738C44.4876 34.9609 44.9205 35.1045 45.4583 35.1045C46.0461 35.1045 46.5064 34.904 46.8391 34.5029C47.1764 34.1019 47.345 33.5482 47.345 32.8418C47.345 32.1764 47.1627 31.6432 46.7981 31.2422C46.4381 30.8366 45.9573 30.6338 45.3557 30.6338C44.8043 30.6338 44.3713 30.7546 44.0569 30.9961L43.7219 31.2695L42.7102 31.0098Z" fill="#98A1AE"/>
</g>
<defs>
<clipPath id="clip0_20602_15100">
<rect width="64" height="64" fill="white"/>
</clipPath>
</defs>
</svg>
