<svg width="118" height="20" viewBox="0 0 118 20" fill="none" xmlns="http://www.w3.org/2000/svg">
<g clip-path="url(#clip0_23995_9812)">
<path fill-rule="evenodd" clip-rule="evenodd" d="M28.0984 7.86842C28.0984 4.02467 28.0984 3.32561 28.0351 2.53964C27.9716 1.7534 27.8131 1.28763 26.8934 1.17112C26.672 1.14179 26.1962 1.11273 25.9425 1.11273C25.8473 1.11273 25.7207 0.996218 25.7207 0.90904C25.7207 0.76347 25.8473 0.705078 26.1645 0.705078C27.4328 0.705078 29.1133 0.76347 29.3667 0.76347C29.6201 0.76347 31.3638 0.705078 32.1885 0.705078C32.5052 0.705078 32.664 0.76347 32.664 0.90904C32.664 0.996218 32.5372 1.11273 32.4103 1.11273C32.2199 1.11273 32.0617 1.11273 31.713 1.17112C30.9836 1.28763 30.8251 1.72434 30.7615 2.53964C30.6982 3.32561 30.6982 4.02467 30.6982 7.86842V11.3333C30.6982 14.915 31.5543 16.4003 32.7592 17.3902C34.1221 18.5257 35.3271 18.7294 36.912 18.7294C38.6244 18.7294 40.2726 18.0309 41.2242 16.9823C42.5238 15.5557 42.8091 13.5174 42.8091 10.9841V7.86842C42.8091 4.02467 42.7772 3.32561 42.7459 2.53964C42.7139 1.7534 42.5557 1.28763 41.6364 1.17112C41.414 1.14179 40.9388 1.11273 40.6848 1.11273C40.558 1.11273 40.4628 0.996218 40.4628 0.90904C40.4628 0.76347 40.5899 0.705078 40.9069 0.705078C42.1432 0.705078 43.7601 0.76347 43.9189 0.76347C44.1087 0.76347 45.4406 0.705078 46.265 0.705078C46.582 0.705078 46.7085 0.76347 46.7085 0.90904C46.7085 0.996218 46.6139 1.11273 46.4867 1.11273C46.2966 1.11273 46.1378 1.11273 45.7892 1.17112C45.0284 1.31669 44.8699 1.72434 44.8063 2.53964C44.743 3.32561 44.7749 4.02467 44.7749 7.86842V10.5183C44.7749 13.1969 44.3941 16.1963 42.1752 17.9434C40.1461 19.545 37.9901 19.7487 36.3413 19.7487C35.422 19.7487 32.5052 19.6906 30.5394 18.0018C29.1765 16.837 28.0984 15.1189 28.0984 11.5082V7.86842Z" fill="#12284B"/>
<path fill-rule="evenodd" clip-rule="evenodd" d="M52.548 7.82505C52.548 3.83689 52.548 3.11156 52.4852 2.29606C52.4227 1.41998 52.2661 0.997017 51.3578 0.876129C51.1385 0.845694 50.6689 0.815543 50.4186 0.815543C50.3245 0.815543 50.1992 0.694655 50.1992 0.604203C50.1992 0.453164 50.3245 0.392578 50.6373 0.392578C51.8899 0.392578 53.6122 0.453164 53.8316 0.453164C54.4268 0.453164 56.4934 0.392578 57.746 0.392578C61.284 0.392578 62.5367 1.45013 63.0063 1.84266C63.6328 2.3868 64.3842 3.53481 64.3842 4.92459C64.3842 8.61067 61.5034 11.0577 57.2758 11.0577C57.1196 11.0577 56.6496 11.0577 56.4934 11.0273C56.3678 11.0273 56.2115 10.9067 56.2115 10.7858C56.2115 10.5745 56.3678 10.5139 56.9315 10.5139C59.9064 10.5139 62.0355 8.70113 62.0355 6.37496C62.0355 5.52875 61.9418 3.86704 60.4701 2.47725C59.0296 1.08747 57.3702 1.23851 56.7437 1.23851C56.2741 1.23851 55.4913 1.3594 55.2095 1.41998C55.053 1.45013 54.9899 1.63132 54.9899 1.90325V12.3568C54.9899 14.8343 54.9899 16.8584 55.1157 17.9159C55.2095 18.6714 55.366 19.1547 56.2115 19.2755C56.5871 19.3361 57.1824 19.3964 57.4327 19.3964C57.5895 19.3964 57.652 19.517 57.652 19.6081C57.652 19.7287 57.5267 19.8194 57.2133 19.8194C55.7104 19.8194 53.8941 19.7287 53.7691 19.7287C53.6747 19.7287 51.8899 19.8194 51.045 19.8194C50.7629 19.8194 50.6063 19.7588 50.6063 19.6081C50.6063 19.517 50.6688 19.3964 50.8257 19.3964C51.076 19.3964 51.4203 19.3361 51.6709 19.2755C52.2033 19.1547 52.2661 18.6714 52.3911 17.9159C52.548 16.8584 52.548 14.8343 52.548 12.3568V7.82505Z" fill="#12284B"/>
<path fill-rule="evenodd" clip-rule="evenodd" d="M72.3498 12.4171C72.3498 16.1939 72.4126 17.7347 72.9132 18.1878C73.3519 18.6111 74.4164 18.792 76.5768 18.792C78.0178 18.792 79.2386 18.7618 79.8961 18.0066C80.2407 17.6138 80.4597 17.07 80.5541 16.5563C80.585 16.3751 80.6791 16.224 80.8359 16.224C80.9609 16.224 81.0237 16.3449 81.0237 16.6166C81.0237 16.8885 80.8359 18.4296 80.6166 19.1848C80.4288 19.789 80.3347 19.8797 78.8627 19.8797C76.8902 19.8797 75.3557 19.8495 74.0721 19.789C72.8195 19.7588 71.8799 19.7287 71.0656 19.7287C70.9406 19.7287 70.471 19.7287 69.9383 19.7588C69.3749 19.789 68.7797 19.8194 68.3416 19.8194C68.0598 19.8194 67.9032 19.7588 67.9032 19.6081C67.9032 19.517 67.9657 19.3964 68.1226 19.3964C68.3729 19.3964 68.7172 19.3361 68.9675 19.2755C69.5002 19.1547 69.563 18.6714 69.688 17.9159C69.8448 16.8584 69.8448 14.8343 69.8448 12.3568V7.82505C69.8448 3.83689 69.8448 3.11156 69.782 2.29606C69.7195 1.41998 69.563 0.997017 68.6547 0.876129C68.4354 0.845694 67.9657 0.815543 67.7154 0.815543C67.6214 0.815543 67.4961 0.694655 67.4961 0.604203C67.4961 0.453164 67.6214 0.392578 67.9342 0.392578C69.1868 0.392578 70.9091 0.453164 71.0656 0.453164C71.1909 0.453164 73.2575 0.392578 74.1031 0.392578C74.3849 0.392578 74.5417 0.453164 74.5417 0.604203C74.5417 0.694655 74.4164 0.785392 74.3224 0.785392C74.1346 0.785392 73.7275 0.815543 73.4141 0.845694C72.6001 0.997017 72.4436 1.38955 72.3811 2.29606C72.3498 3.11156 72.3498 3.83689 72.3498 7.82505V12.4171Z" fill="#12284B"/>
<path fill-rule="evenodd" clip-rule="evenodd" d="M89.1051 12.3568C89.1051 14.8343 89.1051 16.8584 89.2301 17.9159C89.3239 18.6714 89.4179 19.1547 90.2319 19.2755C90.639 19.3361 91.2342 19.3964 91.4845 19.3964C91.6413 19.3964 91.7038 19.517 91.7038 19.6081C91.7038 19.7287 91.5786 19.8194 91.2652 19.8194C89.731 19.8194 87.9462 19.7287 87.8209 19.7287C87.6641 19.7287 85.9421 19.8194 85.0969 19.8194C84.815 19.8194 84.6582 19.7588 84.6582 19.6081C84.6582 19.517 84.721 19.3964 84.8775 19.3964C85.1278 19.3964 85.4722 19.3361 85.7228 19.2755C86.2555 19.1547 86.3489 18.6714 86.443 17.9159C86.5683 16.8584 86.5998 14.8343 86.5998 12.3568V7.82505C86.5998 3.83689 86.5998 3.11156 86.5373 2.29606C86.4745 1.41998 86.2555 1.02717 85.6603 0.906565C85.3472 0.845694 85.0028 0.815543 84.815 0.815543C84.6895 0.815543 84.5957 0.694655 84.5957 0.604203C84.5957 0.453164 84.721 0.392578 85.0338 0.392578C85.9421 0.392578 87.6641 0.453164 87.8209 0.453164C87.9462 0.453164 89.731 0.392578 90.5765 0.392578C90.8899 0.392578 91.0149 0.453164 91.0149 0.604203C91.0149 0.694655 90.8899 0.815543 90.7958 0.815543C90.608 0.815543 90.4197 0.815543 90.1069 0.876129C89.3554 1.02717 89.1989 1.38955 89.1361 2.29606C89.1051 3.11156 89.1051 3.83689 89.1051 7.82505V12.3568Z" fill="#12284B"/>
<path fill-rule="evenodd" clip-rule="evenodd" d="M99.3143 16.3141C99.3768 18.4292 99.6271 19.0635 100.379 19.2447C100.88 19.3659 101.506 19.396 101.757 19.396C101.882 19.396 101.976 19.4865 101.976 19.6076C101.976 19.7584 101.788 19.819 101.475 19.819C99.9089 19.819 98.8131 19.7282 98.5628 19.7282C98.3119 19.7282 97.1533 19.819 95.9007 19.819C95.6188 19.819 95.4629 19.7885 95.4629 19.6076C95.4629 19.4865 95.5563 19.396 95.6819 19.396C95.9007 19.396 96.4019 19.3659 96.809 19.2447C97.498 19.0635 97.592 18.3689 97.592 16.0424V1.32883C97.592 0.301712 97.7485 0.0297852 97.9676 0.0297852C98.281 0.0297852 98.7503 0.543203 99.0321 0.81513C99.4708 1.23809 103.479 5.34714 107.738 9.5768C110.462 12.2961 113.405 15.3476 114.251 16.1935L113.969 3.32277C113.938 1.66106 113.781 1.08706 112.936 0.936017C112.435 0.84528 111.808 0.81513 111.589 0.81513C111.401 0.81513 111.37 0.664091 111.37 0.573638C111.37 0.422315 111.589 0.392164 111.902 0.392164C113.155 0.392164 114.47 0.45275 114.783 0.45275C115.096 0.45275 116.004 0.392164 117.132 0.392164C117.413 0.392164 117.633 0.422315 117.633 0.573638C117.633 0.664091 117.507 0.81513 117.319 0.81513C117.194 0.81513 116.975 0.815129 116.662 0.875715C115.754 1.05691 115.691 1.57061 115.691 3.11114L115.629 18.1573C115.629 19.8491 115.597 20.0002 115.409 20.0002C115.128 20.0002 114.846 19.7885 113.311 18.4292C113.03 18.1874 109.053 14.4109 106.14 11.4803C102.946 8.2476 99.8464 5.10565 99.0012 4.19914L99.3143 16.3141Z" fill="#12284B"/>
<mask id="mask0_23995_9812" style="mask-type:alpha" maskUnits="userSpaceOnUse" x="0" y="0" width="19" height="20">
<path d="M0.640625 0H18.1372V19.7489H0.640625V0Z" fill="white"/>
</mask>
<g mask="url(#mask0_23995_9812)">
<path fill-rule="evenodd" clip-rule="evenodd" d="M12.3162 0.213956C12.1344 0.211908 11.9835 0.213956 11.6508 0.272314C10.9558 0.388773 10.8046 0.826458 10.7441 1.64321C10.6836 2.43079 10.6836 3.13083 10.6836 6.98091V10.4519C10.6836 14.0397 11.4999 15.5275 12.6483 16.5191C13.9484 17.6566 15.0974 17.8611 16.609 17.8611C17.1831 17.8611 17.7478 17.7702 18.2808 17.612V-0.03125H12.5454C12.5488 -0.0174284 12.5578 -0.0064223 12.5578 0.00970291C12.5578 0.0972398 12.5337 0.216259 12.3162 0.213956Z" fill="#12284B"/>
<path fill-rule="evenodd" clip-rule="evenodd" d="M10.5312 17.1319C9.23127 15.965 8.20303 14.2439 8.20303 10.627V6.98091C8.20303 3.13083 8.20303 2.43079 8.14254 1.64321C8.08206 0.855636 7.93111 0.388773 7.05435 0.272313C6.84265 0.243135 6.38954 0.216515 6.14734 0.213956C5.96695 0.211908 5.93564 0.0972398 5.93564 0.00970291C5.93564 -0.0064223 5.94307 -0.0174284 5.94625 -0.03125H0.289062V20.5048H18.2796V18.6789C17.4848 18.8434 16.7303 18.8816 16.0634 18.8816C15.1866 18.8816 12.4054 18.8235 10.5312 17.1319Z" fill="#12284B"/>
</g>
</g>
<defs>
<clipPath id="clip0_23995_9812">
<rect width="118" height="20" fill="white"/>
</clipPath>
</defs>
</svg>
