<svg width="24" height="24" viewBox="0 0 24 24" fill="none" xmlns="http://www.w3.org/2000/svg">
<path d="M7.55 3.91398L6.12 2.48398C3.72 4.31398 2.14 7.13398 2 10.334H4C4.15 7.68398 5.51 5.36398 7.55 3.91398ZM19.94 10.334H21.94C21.79 7.13398 20.21 4.31398 17.82 2.48398L16.4 3.91398C18.42 5.36398 19.79 7.68398 19.94 10.334ZM17.97 10.834C17.97 7.76398 16.33 5.19398 13.47 4.51398V3.83398C13.47 3.00398 12.8 2.33398 11.97 2.33398C11.14 2.33398 10.47 3.00398 10.47 3.83398V4.51398C7.6 5.19398 5.97 7.75398 5.97 10.834V15.834L3.97 17.834V18.834H19.97V17.834L17.97 15.834V10.834ZM11.97 21.834C12.11 21.834 12.24 21.824 12.37 21.794C13.02 21.654 13.55 21.214 13.81 20.614C13.91 20.374 13.96 20.114 13.96 19.834H9.96C9.97 20.934 10.86 21.834 11.97 21.834Z" fill="#1E427B"/>
</svg>
