<svg width="32" height="32" viewBox="0 0 32 32" fill="none" xmlns="http://www.w3.org/2000/svg">
<path d="M16 2C8.272 2 2 8.272 2 16C2 23.728 8.272 30 16 30C23.728 30 30 23.728 30 16C30 8.272 23.728 2 16 2ZM16 6.2C18.324 6.2 20.2 8.076 20.2 10.4C20.2 12.724 18.324 14.6 16 14.6C13.676 14.6 11.8 12.724 11.8 10.4C11.8 8.076 13.676 6.2 16 6.2ZM16 26.08C12.5 26.08 9.406 24.288 7.6 21.572C7.642 18.786 13.2 17.26 16 17.26C18.786 17.26 24.358 18.786 24.4 21.572C22.594 24.288 19.5 26.08 16 26.08Z" fill="#1E427B"/>
</svg>
